 0
SECTION
 2
HEADER
 9
$INSUNITS
 70
6
 0
ENDSEC
 0
SECTION
 2
BLOCKS
 0
BLOCK
 8
LAYER0
 2
EXACTFLAT-PIECE-0-1542890404
 70
64
 10
0
 20
0
 30
0
 3
EXACTFLAT-PIECE-0-1542890404
 0
LINE
 8
GRAIN
 62
9
 10
71.980991
 20
53.497438
 30
0
 11
215.942972
 21
53.497438
 31
0
 999
_GRAINDATA
 0
POLYLINE
 8
CUT
 62
1
 66
   1
 10
0
 20
0
 30
0
 0
VERTEX
 8
CUT
 10
-0.008438
 20
17.905015
 30
0
 0
VERTEX
 8
CUT
 10
0.637922
 20
20.507417
 30
0
 0
VERTEX
 8
CUT
 10
1.319759
 20
23.367149
 30
0
 0
VERTEX
 8
CUT
 10
2.084190
 20
26.761304
 30
0
 0
VERTEX
 8
CUT
 10
2.931151
 20
30.786203
 30
0
 0
VERTEX
 8
CUT
 10
3.891631
 20
35.557810
 30
0
 0
VERTEX
 8
CUT
 10
4.998324
 20
41.185966
 30
0
 0
VERTEX
 8
CUT
 10
6.303832
 20
47.780133
 30
0
 0
VERTEX
 8
CUT
 10
7.883970
 20
55.514520
 30
0
 0
VERTEX
 8
CUT
 10
9.674130
 20
64.589602
 30
0
 0
VERTEX
 8
CUT
 10
11.430286
 20
75.302480
 30
0
 0
VERTEX
 8
CUT
 10
12.807218
 20
88.037191
 30
0
 0
VERTEX
 8
CUT
 10
13.099390
 20
103.306784
 30
0
 0
SEQEND
 999
_CUTDATA
 0
POLYLINE
 8
CUT
 62
1
 66
   1
 10
0
 20
0
 30
0
 0
VERTEX
 8
CUT
 10
13.099390
 20
103.306784
 30
0
 0
VERTEX
 8
CUT
 10
28.640450
 20
104.156640
 30
0
 0
VERTEX
 8
CUT
 10
44.984220
 20
105.181835
 30
0
 0
VERTEX
 8
CUT
 10
62.519951
 20
106.329813
 30
0
 0
VERTEX
 8
CUT
 10
81.893511
 20
107.001226
 30
0
 0
VERTEX
 8
CUT
 10
103.963065
 20
106.938700
 30
0
 0
VERTEX
 8
CUT
 10
128.692944
 20
106.272877
 30
0
 0
VERTEX
 8
CUT
 10
152.838175
 20
105.214830
 30
0
 0
VERTEX
 8
CUT
 10
173.625943
 20
104.031818
 30
0
 0
VERTEX
 8
CUT
 10
191.503764
 20
102.831140
 30
0
 0
VERTEX
 8
CUT
 10
207.347095
 20
101.636209
 30
0
 0
VERTEX
 8
CUT
 10
224.125403
 20
100.225708
 30
0
 0
VERTEX
 8
CUT
 10
243.056312
 20
98.519539
 30
0
 0
VERTEX
 8
CUT
 10
262.095478
 20
96.993861
 30
0
 0
VERTEX
 8
CUT
 10
280.205887
 20
96.008817
 30
0
 0
SEQEND
 999
_CUTDATA
 0
POLYLINE
 8
CUT
 62
1
 66
   1
 10
0
 20
0
 30
0
 0
VERTEX
 8
CUT
 10
280.205887
 20
96.008817
 30
0
 0
VERTEX
 8
CUT
 10
280.539943
 20
80.446655
 30
0
 0
VERTEX
 8
CUT
 10
281.094689
 20
67.039486
 30
0
 0
VERTEX
 8
CUT
 10
281.708599
 20
55.468525
 30
0
 0
VERTEX
 8
CUT
 10
282.450839
 20
45.390798
 30
0
 0
VERTEX
 8
CUT
 10
283.359341
 20
36.830261
 30
0
 0
VERTEX
 8
CUT
 10
284.288775
 20
29.351350
 30
0
 0
VERTEX
 8
CUT
 10
285.044464
 20
22.972313
 30
0
 0
VERTEX
 8
CUT
 10
285.622459
 20
17.449683
 30
0
 0
VERTEX
 8
CUT
 10
286.112691
 20
12.788001
 30
0
 0
VERTEX
 8
CUT
 10
286.581135
 20
8.812606
 30
0
 0
VERTEX
 8
CUT
 10
287.038959
 20
5.461037
 30
0
 0
VERTEX
 8
CUT
 10
287.481144
 20
2.603930
 30
0
 0
VERTEX
 8
CUT
 10
287.932181
 20
-0.010280
 30
0
 0
SEQEND
 999
_CUTDATA
 0
POLYLINE
 8
CUT
 62
1
 66
   1
 10
0
 20
0
 30
0
 0
VERTEX
 8
CUT
 10
287.932181
 20
-0.010280
 30
0
 0
VERTEX
 8
CUT
 10
285.380780
 20
1.047259
 30
0
 0
VERTEX
 8
CUT
 10
282.633541
 20
2.143406
 30
0
 0
VERTEX
 8
CUT
 10
279.411170
 20
3.362013
 30
0
 0
VERTEX
 8
CUT
 10
275.570877
 20
4.714711
 30
0
 0
VERTEX
 8
CUT
 10
270.982783
 20
6.180046
 30
0
 0
VERTEX
 8
CUT
 10
265.501379
 20
7.737732
 30
0
 0
VERTEX
 8
CUT
 10
258.953994
 20
9.369521
 30
0
 0
VERTEX
 8
CUT
 10
251.152812
 20
11.068102
 30
0
 0
VERTEX
 8
CUT
 10
241.882501
 20
12.859748
 30
0
 0
VERTEX
 8
CUT
 10
230.895869
 20
14.808079
 30
0
 0
VERTEX
 8
CUT
 10
217.897894
 20
16.884568
 30
0
 0
VERTEX
 8
CUT
 10
202.967592
 20
18.864925
 30
0
 0
VERTEX
 8
CUT
 10
187.745044
 20
20.356804
 30
0
 0
VERTEX
 8
CUT
 10
173.003209
 20
21.314043
 30
0
 0
VERTEX
 8
CUT
 10
158.576118
 20
21.852769
 30
0
 0
VERTEX
 8
CUT
 10
143.573186
 20
22.134115
 30
0
 0
VERTEX
 8
CUT
 10
126.226991
 20
22.362878
 30
0
 0
VERTEX
 8
CUT
 10
106.923088
 20
22.794676
 30
0
 0
VERTEX
 8
CUT
 10
88.569112
 20
23.201462
 30
0
 0
VERTEX
 8
CUT
 10
73.081064
 20
23.311663
 30
0
 0
VERTEX
 8
CUT
 10
59.939502
 20
23.120336
 30
0
 0
VERTEX
 8
CUT
 10
48.731549
 20
22.695431
 30
0
 0
VERTEX
 8
CUT
 10
39.183259
 20
22.135110
 30
0
 0
VERTEX
 8
CUT
 10
31.053224
 20
21.517811
 30
0
 0
VERTEX
 8
CUT
 10
24.157485
 20
20.898108
 30
0
 0
VERTEX
 8
CUT
 10
18.322555
 20
20.293155
 30
0
 0
VERTEX
 8
CUT
 10
13.392087
 20
19.720672
 30
0
 0
VERTEX
 8
CUT
 10
9.227569
 20
19.192093
 30
0
 0
VERTEX
 8
CUT
 10
5.705938
 20
18.717005
 30
0
 0
VERTEX
 8
CUT
 10
2.728219
 20
18.299420
 30
0
 0
VERTEX
 8
CUT
 10
-0.008438
 20
17.905015
 30
0
 0
SEQEND
 999
_CUTDATA
 0
POLYLINE
 8
SEAM
 62
5
 66
   1
 10
0
 20
0
 30
0
 0
VERTEX
 8
SEAM
 10
0.000000
 20
17.912647
 30
0
 0
VERTEX
 8
SEAM
 10
0.644092
 20
20.505916
 30
0
 0
VERTEX
 8
SEAM
 10
1.325946
 20
23.365715
 30
0
 0
VERTEX
 8
SEAM
 10
2.090394
 20
26.759953
 30
0
 0
VERTEX
 8
SEAM
 10
2.937371
 20
30.784923
 30
0
 0
VERTEX
 8
SEAM
 10
3.897859
 20
35.556571
 30
0
 0
VERTEX
 8
SEAM
 10
5.004554
 20
41.184737
 30
0
 0
VERTEX
 8
SEAM
 10
6.310058
 20
47.778881
 30
0
 0
VERTEX
 8
SEAM
 10
7.890196
 20
55.513270
 30
0
 0
VERTEX
 8
SEAM
 10
9.680380
 20
64.588473
 30
0
 0
VERTEX
 8
SEAM
 10
11.436581
 20
75.301625
 30
0
 0
VERTEX
 8
SEAM
 10
12.813561
 20
88.036788
 30
0
 0
VERTEX
 8
SEAM
 10
13.105626
 20
103.300765
 30
0
 0
SEQEND
 999
_SEAMDATA
 0
POLYLINE
 8
SEAM
 62
5
 66
   1
 10
0
 20
0
 30
0
 0
VERTEX
 8
SEAM
 10
13.105626
 20
103.300765
 30
0
 0
VERTEX
 8
SEAM
 10
28.640822
 20
104.150301
 30
0
 0
VERTEX
 8
SEAM
 10
44.984626
 20
105.175498
 30
0
 0
VERTEX
 8
SEAM
 10
62.520268
 20
106.323470
 30
0
 0
VERTEX
 8
SEAM
 10
81.893612
 20
106.994876
 30
0
 0
VERTEX
 8
SEAM
 10
103.962971
 20
106.932350
 30
0
 0
VERTEX
 8
SEAM
 10
128.692719
 20
106.266530
 30
0
 0
VERTEX
 8
SEAM
 10
152.837855
 20
105.208488
 30
0
 0
VERTEX
 8
SEAM
 10
173.625550
 20
104.025480
 30
0
 0
VERTEX
 8
SEAM
 10
191.503313
 20
102.824806
 30
0
 0
VERTEX
 8
SEAM
 10
207.346590
 20
101.629879
 30
0
 0
VERTEX
 8
SEAM
 10
224.124852
 20
100.219382
 30
0
 0
VERTEX
 8
SEAM
 10
243.055774
 20
98.513212
 30
0
 0
VERTEX
 8
SEAM
 10
262.095052
 20
96.987524
 30
0
 0
VERTEX
 8
SEAM
 10
280.199665
 20
96.002796
 30
0
 0
SEQEND
 999
_SEAMDATA
 0
POLYLINE
 8
SEAM
 62
5
 66
   1
 10
0
 20
0
 30
0
 0
VERTEX
 8
SEAM
 10
280.199665
 20
96.002796
 30
0
 0
VERTEX
 8
SEAM
 10
280.533596
 20
80.446456
 30
0
 0
VERTEX
 8
SEAM
 10
281.088346
 20
67.039186
 30
0
 0
VERTEX
 8
SEAM
 10
281.702261
 20
55.468124
 30
0
 0
VERTEX
 8
SEAM
 10
282.444514
 20
45.390229
 30
0
 0
VERTEX
 8
SEAM
 10
283.353032
 20
36.829534
 30
0
 0
VERTEX
 8
SEAM
 10
284.282471
 20
29.350585
 30
0
 0
VERTEX
 8
SEAM
 10
285.038153
 20
22.971609
 30
0
 0
VERTEX
 8
SEAM
 10
285.616144
 20
17.449020
 30
0
 0
VERTEX
 8
SEAM
 10
286.106380
 20
12.787298
 30
0
 0
VERTEX
 8
SEAM
 10
286.574835
 20
8.811805
 30
0
 0
VERTEX
 8
SEAM
 10
287.032675
 20
5.460121
 30
0
 0
VERTEX
 8
SEAM
 10
287.474877
 20
2.602905
 30
0
 0
VERTEX
 8
SEAM
 10
287.923963
 20
0.000000
 30
0
 0
SEQEND
 999
_SEAMDATA
 0
POLYLINE
 8
SEAM
 62
5
 66
   1
 10
0
 20
0
 30
0
 0
VERTEX
 8
SEAM
 10
287.923963
 20
0.000000
 30
0
 0
VERTEX
 8
SEAM
 10
285.383172
 20
1.053141
 30
0
 0
VERTEX
 8
SEAM
 10
282.635841
 20
2.149325
 30
0
 0
VERTEX
 8
SEAM
 10
279.413348
 20
3.367978
 30
0
 0
VERTEX
 8
SEAM
 10
275.572898
 20
4.720731
 30
0
 0
VERTEX
 8
SEAM
 10
270.984617
 20
6.186126
 30
0
 0
VERTEX
 8
SEAM
 10
265.503015
 20
7.743869
 30
0
 0
VERTEX
 8
SEAM
 10
258.955438
 20
9.375705
 30
0
 0
VERTEX
 8
SEAM
 10
251.154090
 20
11.074323
 30
0
 0
VERTEX
 8
SEAM
 10
241.883658
 20
12.865992
 30
0
 0
VERTEX
 8
SEAM
 10
230.896925
 20
14.814340
 30
0
 0
VERTEX
 8
SEAM
 10
217.898813
 20
16.890852
 30
0
 0
VERTEX
 8
SEAM
 10
202.968320
 20
18.871234
 30
0
 0
VERTEX
 8
SEAM
 10
187.745559
 20
20.363134
 30
0
 0
VERTEX
 8
SEAM
 10
173.003533
 20
21.320385
 30
0
 0
VERTEX
 8
SEAM
 10
158.576296
 20
21.859117
 30
0
 0
VERTEX
 8
SEAM
 10
143.573288
 20
22.140464
 30
0
 0
VERTEX
 8
SEAM
 10
126.227104
 20
22.369227
 30
0
 0
VERTEX
 8
SEAM
 10
106.923230
 20
22.801025
 30
0
 0
VERTEX
 8
SEAM
 10
88.569205
 20
23.207811
 30
0
 0
VERTEX
 8
SEAM
 10
73.081040
 20
23.318014
 30
0
 0
VERTEX
 8
SEAM
 10
59.939336
 20
23.126685
 30
0
 0
VERTEX
 8
SEAM
 10
48.731242
 20
22.701774
 30
0
 0
VERTEX
 8
SEAM
 10
39.182832
 20
22.141445
 30
0
 0
VERTEX
 8
SEAM
 10
31.052699
 20
21.524139
 30
0
 0
VERTEX
 8
SEAM
 10
24.156873
 20
20.904428
 30
0
 0
VERTEX
 8
SEAM
 10
18.321861
 20
20.299467
 30
0
 0
VERTEX
 8
SEAM
 10
13.391321
 20
19.726975
 30
0
 0
VERTEX
 8
SEAM
 10
9.226745
 20
19.198390
 30
0
 0
VERTEX
 8
SEAM
 10
5.705073
 20
18.723296
 30
0
 0
VERTEX
 8
SEAM
 10
2.727326
 20
18.305706
 30
0
 0
VERTEX
 8
SEAM
 10
0.000000
 20
17.912647
 30
0
 0
SEQEND
 999
_SEAMDATA
 0
ENDBLK
 8
LAYER0
 0
ENDSEC
 0
SECTION
 2
ENTITIES
 0
INSERT
 8
LAYER0
 2
EXACTFLAT-PIECE-0-1542890404
 10
0
 20
0
 30
0
 0
ENDSEC
 0
EOF
